<?xml version="1.0" encoding="UTF-8" standalone="no"?>
<!DOCTYPE svg PUBLIC "-//W3C//DTD SVG 1.1//EN" "http://www.w3.org/Graphics/SVG/1.1/DTD/svg11.dtd">
<svg width="100%" height="100%" viewBox="0 0 40 20" version="1.1" xmlns="http://www.w3.org/2000/svg" xmlns:xlink="http://www.w3.org/1999/xlink" xml:space="preserve" xmlns:serif="http://www.serif.com/" style="fill-rule:evenodd;clip-rule:evenodd;stroke-linejoin:round;stroke-miterlimit:2;">
    <g transform="matrix(0.0612245,0,0,0.06,0.408163,-5.36)">
        <path d="M560,96L48,96C21.49,96 0,117.49 0,144L0,368C0,394.51 21.49,416 48,416L560,416C586.51,416 608,394.51 608,368L608,352L616,352C629.255,352 640,341.255 640,328L640,184C640,170.745 629.255,160 616,160L608,160L608,144C608,117.49 586.51,96 560,96Z" style="fill:none;fill-rule:nonzero;stroke:rgb(197,200,198);stroke-width:13.33px;"/>
    </g>
</svg>
