<?xml version="1.0" encoding="UTF-8" standalone="no"?>
<!DOCTYPE svg PUBLIC "-//W3C//DTD SVG 1.1//EN" "http://www.w3.org/Graphics/SVG/1.1/DTD/svg11.dtd">
<svg width="100%" height="100%" viewBox="0 0 640 512" version="1.1" xmlns="http://www.w3.org/2000/svg" xmlns:xlink="http://www.w3.org/1999/xlink" xml:space="preserve" xmlns:serif="http://www.serif.com/" style="fill-rule:evenodd;clip-rule:evenodd;stroke-linejoin:round;stroke-miterlimit:2;">
    <path d="M544,160L544,224L576,224L576,288L544,288L544,352L64,352L64,160L544,160M560,96L48,96C21.49,96 0,117.49 0,144L0,368C0,394.51 21.49,416 48,416L560,416C586.51,416 608,394.51 608,368L608,352L616,352C629.255,352 640,341.255 640,328L640,184C640,170.745 629.255,160 616,160L608,160L608,144C608,117.49 586.51,96 560,96Z" style="fill:rgb(197,200,198);fill-rule:nonzero;"/>
</svg>
