<?xml version="1.0" encoding="UTF-8" standalone="no"?>
<!DOCTYPE svg PUBLIC "-//W3C//DTD SVG 1.1//EN" "http://www.w3.org/Graphics/SVG/1.1/DTD/svg11.dtd">
<svg width="100%" height="100%" viewBox="0 0 640 512" version="1.1" xmlns="http://www.w3.org/2000/svg" xmlns:xlink="http://www.w3.org/1999/xlink" xml:space="preserve" xmlns:serif="http://www.serif.com/" style="fill-rule:evenodd;clip-rule:evenodd;stroke-linejoin:round;stroke-miterlimit:2;">
    <path d="M192,160L224,160L224,32L192,32C156.65,32 128,60.65 128,96C128,131.35 156.65,160 192,160ZM0,416C0,451.35 28.65,480 64,480L96,480L96,352L64,352C28.65,352 0,380.65 0,416ZM337.46,288C302.55,288 261.3,301.12 232.73,320C207.94,336.38 188.21,352 128,352L128,480L185.53,495.97C211.74,503.25 238.54,509.09 265.84,511.02C298.53,513.33 331.44,511.69 363.42,504.82C472.9,481.3 512,429.22 512,384C512,320 427.82,288 337.46,288ZM491.42,7.19C459.44,0.32 426.53,-1.33 393.84,0.99C366.54,2.92 339.74,8.76 313.53,16.03L256,32L256,160C316.2,160 335.94,175.62 360.73,192C389.3,210.88 430.55,224 465.46,224C555.82,224 640,192 640,128C640,82.78 600.9,30.7 491.42,7.19Z" style="fill:rgb(139,172,249);fill-rule:nonzero;"/>
</svg>
